<svg xmlns="http://www.w3.org/2000/svg" width="40" height="38" viewBox="0 0 40 38">
  <g fill="none" fill-rule="evenodd">
    <path fill="#F16825" d="M31.7215854,16.814787 C27.2696304,17.2368458 19.0698447,17.6559059 12.3697911,16.0223961 C12.3697911,16.0223961 14.5691484,20.2647238 19.3967863,20.9634072 C20.2621318,21.0893501 22.9594001,21.0391229 25.6341725,20.9491637 C22.6002142,21.3614768 19.2903053,21.661341 16.6815212,21.497915 C16.6815212,21.497915 19.3990359,24.5205454 22.8004285,24.4448297 C23.6605249,24.4245889 26.5430102,24.0265192 28.9043385,23.6816755 C26.2258168,24.4935576 23.1408677,25.3099377 20.7862882,25.5798154 C22.9009106,27.2635525 25.0717729,27.1503537 25.9731119,27.0364054 C26.6547402,26.9509441 27.5733262,26.7492855 28.5504017,26.5056459 C28.0929834,26.8617345 27.6003214,27.1923347 27.0686663,27.4936982 L27.0724156,27.4944478 C26.9786824,27.5461744 26.8849491,27.5971513 26.7897161,27.6481282 C26.3173005,27.9030127 25.8178897,28.1376564 25.2974826,28.3460619 L25.2772362,28.3528089 C25.1302625,28.4112824 24.9780396,28.4675069 24.8280664,28.5229818 L24.7680771,28.5432226 C24.6293519,28.5941995 24.4936261,28.6391791 24.3534012,28.6864077 L24.1831816,28.7411329 C24.0811998,28.7703697 23.9777183,28.8056037 23.8742367,28.8348405 C22.2897697,29.3018788 20.5260846,29.5747552 18.6754151,29.5747552 C10.19218,29.5747552 4.7728977,24.4238392 4.7728977,17.964766 C4.7728977,11.5086914 10.2619175,6.3555264 18.6754151,6.3555264 C22.9406535,6.3555264 26.7297268,7.72515579 29.3317622,10.0610973 C29.5207284,10.2080307 29.7156936,10.3767043 29.9196572,10.5708663 C31.2356722,11.8520358 32.1895019,12.9607834 32.3882164,14.5538116 C36.4644885,12.6301832 34.0611676,8.66073186 34.0611676,8.66073186 C30.9484735,4.38391979 25.5006963,2 18.6754151,2 C7.48516336,2 0,9.03931031 0,18.0389823 C0,27.0356557 7.41167649,34 18.6754151,34 C26.0166042,34 31.5761114,31.2427494 35,26.0918334 L35,16.3627419 L31.7215854,16.814787 Z"/>
  </g>
</svg>
